PathFileType	4	(X/Y/Z)	/Users/itak/Documents/Research/Walk-IL/dataset/trc/00244_00009.trc
DataRate	CameraRate	NumFrames	NumMarkers	Units	OrigDataRate	OrigDataStartFrame	OrigNumFrames
100.000000	100.000000	4	53	mm	100.000000	750	858
Frame#	Time	RPSI			LPSI			L3			STRN			T10			C7			CLAV			RBAK			LBAK			LSHO			LUPA			LAEL			LAOL			LWTS			LWPS			LFRA			LIFD			LHPS			LHTS			RSHO			RUPA			RAEL			RAOL			RWTS			RWPS			RFRA			RIFD			RHTS			RHPS			RBHD			LFHD			RFHD			LBHD			LHIP			RHIP			RASI			LASI			LKNE			LTHI			LANK			LTIP			LTOE			LMT1			LMT5			LHEE			RKNE			RTHI			RANK			RTIP			RTOE			RMT1			RMT5			RHEE			
		X1	Y1	Z1	X2	Y2	Z2	X3	Y3	Z3	X4	Y4	Z4	X5	Y5	Z5	X6	Y6	Z6	X7	Y7	Z7	X8	Y8	Z8	X9	Y9	Z9	X10	Y10	Z10	X11	Y11	Z11	X12	Y12	Z12	X13	Y13	Z13	X14	Y14	Z14	X15	Y15	Z15	X16	Y16	Z16	X17	Y17	Z17	X18	Y18	Z18	X19	Y19	Z19	X20	Y20	Z20	X21	Y21	Z21	X22	Y22	Z22	X23	Y23	Z23	X24	Y24	Z24	X25	Y25	Z25	X26	Y26	Z26	X27	Y27	Z27	X28	Y28	Z28	X29	Y29	Z29	X30	Y30	Z30	X31	Y31	Z31	X32	Y32	Z32	X33	Y33	Z33	X34	Y34	Z34	X35	Y35	Z35	X36	Y36	Z36	X37	Y37	Z37	X38	Y38	Z38	X39	Y39	Z39	X40	Y40	Z40	X41	Y41	Z41	X42	Y42	Z42	X43	Y43	Z43	X44	Y44	Z44	X45	Y45	Z45	X46	Y46	Z46	X47	Y47	Z47	X48	Y48	Z48	X49	Y49	Z49	X50	Y50	Z50	X51	Y51	Z51	X52	Y52	Z52	X53	Y53	Z53	

751	7.5	493.5255126953125	1019.213439941406	367.2520141601562	567.2994995117188	1022.187377929688	462.6311950683594	548.984375	1102.775390625	422.8135681152344	354.8314514160156	1295.349365234375	573.3834838867188	547.2153930664062	1229.900390625	415.5350952148438	503.3941040039062	1494.127685546875	445.2976684570312	374.6311950683594	1412.105102539062	550.66943359375	519.3489379882812	1350.292602539062	348.3779296875	587.9683227539062	1458.159301757812	520.8831787109375	553.4816284179688	1462.678955078125	620.8822021484375	629.25830078125	1347.34326171875	664.9676513671875	646.6222534179688	1138.132568359375	698.0868530273438	676.8737182617188	1122.9443359375	617.07568359375	537.9861450195312	905.677001953125	705.6428833007812	603.634765625	888.331787109375	756.2088012695312	636.9302368164062	1030.844970703125	723.578125	539.4699096679688	708.42138671875	713.9132080078125	587.9542236328125	799.7621459960938	761.5595703125	522.4642944335938	803.1859130859375	740.16259765625	353.8463439941406	1446.92236328125	349.6376037597656	331.0108947753906	1379.490478515625	286.4476318359375	340.0806579589844	1099.85986328125	242.8739471435547	414.2857666015625	1094.474487304688	302.8831787109375	238.392578125	894.76806640625	361.1882629394531	251.5585784912109	874.3095703125	279.3592224121094	309.7854309082031	1031.251098632812	248.8087768554688	220.5366668701172	703.5213012695312	386.0958557128906	192.0253295898438	776.5994873046875	376.1336364746094	211.8753051757812	771.2140502929688	305.6845397949219	430.4779663085938	1651.83740234375	428.6607055664062	319.5460205078125	1694.22509765625	622.2977294921875	260.681640625	1685.72705078125	540.7219848632812	470.6200256347656	1666.787719726562	562.0000610351562	575.5259399414062	959.7819213867188	634.9071044921875	349.8562316894531	988.839599609375	348.4986572265625	299.8507080078125	1032.46533203125	438.4605102539062	468.4124450683594	1008.177978515625	661.89404296875	521.7053833007812	477.0068969726562	654.971435546875	535.1052856445312	621.826904296875	664.5091552734375	775.8118286132812	165.251953125	362.4591369628906	647.0474853515625	331.7914428710938	526.22802734375	635.0242919921875	33.2291145324707	456.7772827148438	630.1763916015625	76.67821502685547	390.4872436523438	734.6338500976562	70.40528106689453	434.3875732421875	757.6700439453125	219.5996856689453	306.9838562011719	270.5002136230469	514.0230102539062	488.0800170898438	271.1808166503906	774.1301879882812	408.9877014160156	337.7025146484375	33.74050903320312	533.2037353515625	266.8778991699219	395.17333984375	525.2307739257812	164.2710418701172	48.04496765136719	661.0144653320312	233.4313659667969	38.68687438964844	674.9649658203125	227.5126342773438	41.7050666809082	558.2160034179688	417.2210083007812	28.81628608703613	561.918701171875	
752	7.51	490.4858703613281	1019.901672363281	370.580078125	563.7350463867188	1022.892944335938	466.3986511230469	545.4993286132812	1103.623046875	426.41796875	350.4325256347656	1296.072875976562	575.888916015625	543.7158813476562	1230.770385742188	419.1397705078125	499.6795043945312	1494.938842773438	448.7113342285156	370.3548278808594	1412.7412109375	553.2930297851562	516.1453247070312	1351.180297851562	351.7604370117188	583.8279418945312	1458.954345703125	524.7571411132812	548.8052978515625	1463.44970703125	624.5951538085938	624.4452514648438	1348.094482421875	668.9535522460938	641.9373168945312	1138.903564453125	701.7835083007812	672.5516967773438	1123.936767578125	620.8838500976562	534.8201904296875	905.6036987304688	708.3928833007812	600.5265502929688	888.6975708007812	759.1975708007812	632.8253784179688	1031.5224609375	727.0137329101562	538.8477172851562	708.21728515625	715.7271118164062	585.91455078125	799.931884765625	764.0833740234375	520.406005859375	802.6231079101562	742.2886962890625	350.5819091796875	1447.783325195312	352.2987365722656	328.0715942382812	1380.470947265625	288.931396484375	336.6790466308594	1100.594970703125	245.8395538330078	410.8467102050781	1095.183715820312	305.96923828125	233.7682342529297	896.7937622070312	365.1908874511719	247.0121917724609	875.7337036132812	283.54052734375	306.1411743164062	1032.09521484375	252.0323333740234	214.5260009765625	705.8764038085938	391.4244384765625	187.0623016357422	778.9124755859375	380.9889221191406	206.6314086914062	773.0079345703125	310.5232849121094	427.1190185546875	1652.611694335938	431.7762756347656	314.8956298828125	1695.043823242188	624.6873779296875	256.57568359375	1686.596435546875	542.709716796875	466.3616943359375	1667.509155273438	565.3994140625	570.5985717773438	960.56787109375	638.7354125976562	346.9036560058594	989.3716430664062	350.6939697265625	296.3488464355469	1033.112426757812	440.3098754882812	463.3028869628906	1009.16943359375	665.0284423828125	512.3137817382812	478.3556518554688	663.957763671875	526.905517578125	623.12451171875	671.8652954101562	770.8146362304688	169.0903167724609	373.1234436035156	639.4215087890625	334.1618041992188	536.2799072265625	630.290283203125	35.22057342529297	466.7491760253906	625.7102661132812	79.48931121826172	400.419921875	729.78466796875	74.25444030761719	445.060791015625	752.846923828125	223.1625823974609	317.4669189453125	268.8708190917969	513.99169921875	489.368408203125	268.8129272460938	774.3522338867188	410.823486328125	337.6646423339844	33.84552001953125	533.2728271484375	265.6259460449219	395.0450439453125	526.1943359375	163.9439392089844	47.48953628540039	661.050048828125	233.3485107421875	38.36672592163086	674.9942626953125	227.4160766601562	41.63511657714844	558.271728515625	417.1787414550781	28.90196800231934	561.9537963867188	
753	7.52	487.5683898925781	1020.591918945312	373.8313598632812	560.2825317382812	1023.640747070312	470.0853576660156	542.1024780273438	1104.523071289062	429.909912109375	346.1329345703125	1296.827758789062	578.3274536132812	540.2931518554688	1231.6953125	422.6395568847656	496.0412292480469	1495.798828125	452.049072265625	366.1513671875	1413.426635742188	555.8463745117188	512.9876708984375	1352.1318359375	355.0432434082031	579.7788696289062	1459.791015625	528.5330200195312	544.24267578125	1464.254272460938	628.2108764648438	619.7337646484375	1348.865600585938	672.818115234375	637.3455200195312	1139.694213867188	705.3513793945312	668.1824951171875	1124.898559570312	624.530029296875	531.5625610351562	905.642333984375	711.3092041015625	597.4535522460938	889.1647338867188	762.2635498046875	628.7965698242188	1032.249145507812	730.39404296875	537.9047241210938	708.1854248046875	718.0018310546875	583.8335571289062	800.245849609375	766.826171875	518.2435302734375	802.2881469726562	744.7952880859375	347.3788452148438	1448.705078125	354.9197387695312	325.1460876464844	1381.477294921875	291.393310546875	333.2776794433594	1101.406372070312	248.7376861572266	407.4296875	1095.951416015625	308.9660339355469	229.2595062255859	898.8515014648438	369.0995788574219	242.4739837646484	877.25048828125	287.5915832519531	302.4974670410156	1033.018676757812	255.2024230957031	208.5673217773438	708.276611328125	396.5398254394531	182.1558990478516	781.2709350585938	385.68017578125	201.4021911621094	774.8746337890625	315.1856384277344	423.7929077148438	1653.444946289062	434.8666381835938	310.3217163085938	1695.8447265625	627.0814819335938	252.5298004150391	1687.465576171875	544.7080078125	462.1667175292969	1668.263671875	568.764404296875	565.726806640625	961.5157470703125	642.5225219726562	344.0010070800781	989.8826293945312	352.8335571289062	292.9555358886719	1033.779174804688	442.0516357421875	458.2839965820312	1010.287292480469	668.0620727539062	502.8250122070312	479.9053955078125	672.5257568359375	518.7053833007812	624.5885620117188	678.9439086914062	765.252197265625	171.9299468994141	384.3854675292969	631.6010131835938	336.2797241210938	546.2272338867188	624.7391967773438	37.54209136962891	478.0627746582031	620.5206909179688	81.7684326171875	411.3934326171875	724.283203125	77.69390869140625	456.9869689941406	747.5416870117188	225.4001159667969	328.1795959472656	267.4260864257812	513.9553833007812	490.5832824707031	266.7184448242188	774.6719970703125	412.4122009277344	337.6387939453125	33.94839096069336	533.3482055664062	264.5353088378906	394.93310546875	527.0751953125	163.6109771728516	47.01947402954102	661.0370483398438	233.2913665771484	38.11204147338867	675.0274658203125	227.3217926025391	41.56897354125977	558.31640625	417.1502685546875	28.99259185791016	561.9931640625	
754	7.53	484.7728271484375	1021.288513183594	377.0234069824219	556.929931640625	1024.427368164062	473.7094421386719	538.787841796875	1105.463134765625	433.3062744140625	341.9303588867188	1297.616333007812	580.6990356445312	536.9462280273438	1232.662963867188	426.0405578613281	492.4849243164062	1496.697021484375	455.30859375	362.0427856445312	1414.171020507812	558.34326171875	509.8770446777344	1353.133911132812	358.2279968261719	575.8236694335938	1460.655517578125	532.2045288085938	539.8027954101562	1465.082397460938	631.7217407226562	615.1302490234375	1349.649536132812	676.5569458007812	632.8488159179688	1140.503173828125	708.8062133789062	663.7945556640625	1125.829833984375	628.0318603515625	528.244140625	905.7761840820312	714.376708984375	594.3923950195312	889.7268676757812	765.4115600585938	624.8394165039062	1033.020874023438	733.73193359375	536.5812377929688	708.3092041015625	720.7174682617188	581.6566162109375	800.6915893554688	769.7879028320312	515.9534912109375	802.175048828125	747.66064453125	344.2477722167969	1449.686889648438	357.4924926757812	322.249755859375	1382.51708984375	293.8274841308594	329.8970336914062	1102.29248046875	251.5605926513672	404.0418395996094	1096.777465820312	311.8671264648438	224.8718109130859	900.938232421875	372.9059448242188	237.9541473388672	878.8515014648438	291.5110168457031	298.8704223632812	1034.018188476562	258.2976379394531	202.6985473632812	710.7135009765625	401.4443054199219	177.3128051757812	783.6705322265625	390.2017211914062	196.2015075683594	776.809326171875	319.6631469726562	420.5028076171875	1654.337036132812	437.9280700683594	305.823486328125	1696.617309570312	629.4754028320312	248.5457916259766	1688.323608398438	546.717041015625	458.034912109375	1669.049682617188	572.0897827148438	560.8901977539062	962.6155395507812	646.2883911132812	341.1528015136719	990.36962890625	354.9249572753906	289.6551513671875	1034.464477539062	443.6883850097656	453.3442077636719	1011.522094726562	670.993408203125	493.2854614257812	481.6223449707031	680.6426391601562	510.5360412597656	626.1870727539062	685.7269287109375	759.1619873046875	173.7550659179688	396.22998046875	623.610107421875	338.0981750488281	556.0702514648438	618.3551635742188	39.98103332519531	490.5629577636719	614.6199951171875	83.44481658935547	423.2930603027344	718.092529296875	80.61328125	470.0094909667969	741.8155517578125	226.3128051757812	339.1446228027344	266.1609497070312	513.9159545898438	491.7044677734375	264.842041015625	775.0438842773438	413.8035888671875	337.6239318847656	34.04560852050781	533.425537109375	263.59326171875	394.8366088867188	527.8591918945312	163.2798614501953	46.62306213378906	660.9764404296875	233.2483520507812	37.91347885131836	675.0546264648438	227.2278747558594	41.50571823120117	558.3401489257812	417.1338500976562	29.09006500244141	562.0347900390625	
